<?xml version="1.0" encoding="UTF-8"?>
<svg id="Layer_1" data-name="Layer 1" xmlns="http://www.w3.org/2000/svg" viewBox="0 0 477.88 479.72">
  <defs>
    <style>
      .cls-1 {
        stroke: #3b7bb8;
      }

      .cls-1, .cls-2 {
        fill: none;
        stroke-linecap: round;
        stroke-miterlimit: 10;
        stroke-width: 32px;
      }

      .cls-2 {
        stroke: #88afdd;
      }
    </style>
  </defs>
  <line class="cls-2" x1="244.51" y1="178.29" x2="288.11" y2="131.22"/>
  <line class="cls-2" x1="299.87" y1="229.99" x2="343.47" y2="182.91"/>
  <line class="cls-2" x1="86.49" y1="402.98" x2="168.74" y2="318.88"/>
  <path class="cls-1" d="m85.7,402.53c-46.62-44.33-73.89-108.45-69.17-177.81C24.93,101.37,131.31,8.16,254.15,16.52c122.83,8.36,215.6,115.13,207.21,238.48-8.4,123.35-114.78,216.56-237.62,208.19-6.8-.46-13.51-1.23-20.12-2.28"/>
  <path class="cls-1" d="m147.42,287.59l47.65,47.85c17.35,17.42,45.47,17.42,62.82,0l63.02-63.28c4.71-4.73,4.71-12.41,0-17.14l-93.4-93.79c-4.71-4.73-12.36-4.73-17.07,0l-63.02,63.28c-17.35,17.42-17.35,45.66,0,63.08Z"/>
</svg>