<?xml version="1.0" encoding="utf-8"?>
<!-- Generator: Adobe Illustrator 27.5.0, SVG Export Plug-In . SVG Version: 6.00 Build 0)  -->
<svg version="1.1" id="Layer_1" xmlns="http://www.w3.org/2000/svg" xmlns:xlink="http://www.w3.org/1999/xlink" x="0px" y="0px"
	 viewBox="0 0 260 60" style="enable-background:new 0 0 260 60;" xml:space="preserve">
<style type="text/css">
	.st0{fill:#3B7BB8;}
	.st1{font-family:'ArialRoundedMTBold';}
	.st2{font-size:28px;}
	.st3{fill:none;stroke:#88AFDD;stroke-width:5;stroke-linecap:round;stroke-miterlimit:10;}
	.st4{fill:none;stroke:#3B7BB8;stroke-width:5;stroke-linecap:round;stroke-miterlimit:10;}
</style>
<text transform="matrix(1 0 0 1 67.8411 40.3938)" class="st0 st1 st2">UNPLUGGED</text>
<line class="st3" x1="30.68" y1="23.9" x2="34.9" y2="19.34"/>
<line class="st3" x1="36.04" y1="28.91" x2="40.26" y2="24.35"/>
<line class="st3" x1="15.37" y1="45.67" x2="23.34" y2="37.52"/>
<path class="st4" d="M15.29,45.63c-4.52-4.29-7.16-10.51-6.7-17.23C9.41,16.45,19.71,7.42,31.61,8.23s20.89,11.15,20.07,23.1
	S40.56,52.32,28.66,51.51c-0.66-0.04-1.31-0.12-1.95-0.22"/>
<path class="st4" d="M21.27,34.49l4.62,4.64c1.68,1.69,4.41,1.69,6.09,0l6.1-6.13c0.46-0.46,0.46-1.2,0-1.66l-9.05-9.09
	c-0.46-0.46-1.2-0.46-1.65,0l-6.1,6.13C19.59,30.07,19.59,32.81,21.27,34.49z"/>
</svg>
