{
  "accessors": [
    {
      "bufferView": 2,
      "componentType": 5126,
      "count": 3360,
      "max": [
        0.30301207304000854,
        0.04000002518296242,
        0.6417946815490723
      ],
      "min": [
        -0.3030121922492981,
        -0.043745122849941254,
        -0.6283242702484131
      ],
      "type": "VEC3"
    },
    {
      "bufferView": 2,
      "byteOffset": 40320,
      "componentType": 5126,
      "count": 3360,
      "max": [
        1.0,
        1.0,
        1.0
      ],
      "min": [
        -1.0,
        -1.0,
        -0.9999972581863403
      ],
      "type": "VEC3"
    },
    {
      "bufferView": 1,
      "componentType": 5126,
      "count": 3360,
      "max": [
        0.994158923625946,
        0.07369166612625122
      ],
      "min": [
        0.9878286719322205,
        0.05131417512893677
      ],
      "type": "VEC2"
    },
    {
      "bufferView": 0,
      "componentType": 5125,
      "count": 18438,
      "type": "SCALAR"
    },
    {
      "bufferView": 2,
      "byteOffset": 80640,
      "componentType": 5126,
      "count": 384,
      "max": [
        0.27348703145980835,
        0.014299406670033932,
        0.6367064118385315
      ],
      "min": [
        -0.2905363142490387,
        -0.014399616979062557,
        -0.4571824073791504
      ],
      "type": "VEC3"
    },
    {
      "bufferView": 2,
      "byteOffset": 85248,
      "componentType": 5126,
      "count": 384,
      "max": [
        1.0,
        0.050600748509168625,
        0.9999992847442627
      ],
      "min": [
        -0.9999953508377075,
        -0.050600748509168625,
        -0.061998263001441956
      ],
      "type": "VEC3"
    },
    {
      "bufferView": 1,
      "byteOffset": 26880,
      "componentType": 5126,
      "count": 384,
      "max": [
        0.9921174049377441,
        0.06948602199554443
      ],
      "min": [
        0.9898629784584045,
        0.05285578966140747
      ],
      "type": "VEC2"
    },
    {
      "bufferView": 0,
      "byteOffset": 73752,
      "componentType": 5125,
      "count": 1050,
      "type": "SCALAR"
    },
    {
      "bufferView": 2,
      "byteOffset": 89856,
      "componentType": 5126,
      "count": 191,
      "max": [
        0.2696533203125,
        0.040000006556510925,
        0.6020684242248535
      ],
      "min": [
        -0.26955464482307434,
        0.03900999203324318,
        -0.5966097116470337
      ],
      "type": "VEC3"
    },
    {
      "bufferView": 2,
      "byteOffset": 92148,
      "componentType": 5126,
      "count": 191,
      "max": [
        0.9998429417610168,
        1.0,
        0.9998406767845154
      ],
      "min": [
        -0.9999995231628418,
        0.0002999998687300831,
        -0.9998422265052795
      ],
      "type": "VEC3"
    },
    {
      "bufferView": 1,
      "byteOffset": 29952,
      "componentType": 5126,
      "count": 191,
      "max": [
        0.9996131062507629,
        0.9997044205665588
      ],
      "min": [
        0.0009371936321258545,
        0.0002955794334411621
      ],
      "type": "VEC2"
    },
    {
      "bufferView": 0,
      "byteOffset": 77952,
      "componentType": 5125,
      "count": 567,
      "type": "SCALAR"
    },
    {
      "bufferView": 2,
      "byteOffset": 94440,
      "componentType": 5126,
      "count": 5001,
      "max": [
        0.2567104697227478,
        0.017656423151493073,
        0.6438063979148865
      ],
      "min": [
        -0.2122640460729599,
        -0.04617512971162796,
        -0.5824445486068726
      ],
      "type": "VEC3"
    },
    {
      "bufferView": 2,
      "byteOffset": 154452,
      "componentType": 5126,
      "count": 5001,
      "max": [
        0.9999219179153442,
        0.9999997615814209,
        1.0
      ],
      "min": [
        -0.9999219179153442,
        -1.0,
        -0.9982553720474243
      ],
      "type": "VEC3"
    },
    {
      "bufferView": 1,
      "byteOffset": 31480,
      "componentType": 5126,
      "count": 5001,
      "max": [
        1.0,
        1.0
      ],
      "min": [
        0.0,
        0.005612432956695557
      ],
      "type": "VEC2"
    },
    {
      "bufferView": 0,
      "byteOffset": 80220,
      "componentType": 5125,
      "count": 14835,
      "type": "SCALAR"
    },
    {
      "bufferView": 2,
      "byteOffset": 214464,
      "componentType": 5126,
      "count": 3044,
      "max": [
        0.25148001313209534,
        -0.04424509033560753,
        -0.36083686351776123
      ],
      "min": [
        0.15451663732528687,
        -0.046175114810466766,
        -0.5777485966682434
      ],
      "type": "VEC3"
    },
    {
      "bufferView": 2,
      "byteOffset": 250992,
      "componentType": 5126,
      "count": 3044,
      "max": [
        0.9997168183326721,
        0.024300705641508102,
        0.9997071623802185
      ],
      "min": [
        -0.9997168183326721,
        -1.0,
        -0.9997071623802185
      ],
      "type": "VEC3"
    },
    {
      "bufferView": 1,
      "byteOffset": 71488,
      "componentType": 5126,
      "count": 3044,
      "max": [
        0.9940494298934937,
        0.9940494298934937
      ],
      "min": [
        0.005950557999312878,
        0.032245755195617676
      ],
      "type": "VEC2"
    },
    {
      "bufferView": 0,
      "byteOffset": 139560,
      "componentType": 5125,
      "count": 4788,
      "type": "SCALAR"
    },
    {
      "bufferView": 2,
      "byteOffset": 287520,
      "componentType": 5126,
      "count": 264,
      "max": [
        0.04030073061585426,
        0.04034503176808357,
        -0.5671603679656982
      ],
      "min": [
        -0.04024697467684746,
        0.03930000588297844,
        -0.5835518836975098
      ],
      "type": "VEC3"
    },
    {
      "bufferView": 2,
      "byteOffset": 290688,
      "componentType": 5126,
      "count": 264,
      "max": [
        0.9935848712921143,
        1.0,
        0.9941388368606567
      ],
      "min": [
        -0.9935848712921143,
        -0.10929549485445023,
        -0.9941388368606567
      ],
      "type": "VEC3"
    },
    {
      "bufferView": 3,
      "componentType": 5126,
      "count": 264,
      "max": [
        0.9999993443489075,
        0.9941294193267822,
        1.0,
        1.0
      ],
      "min": [
        -0.9999993443489075,
        -0.9941294193267822,
        -0.7113100290298462,
        -1.0
      ],
      "type": "VEC4"
    },
    {
      "bufferView": 1,
      "byteOffset": 95840,
      "componentType": 5126,
      "count": 264,
      "max": [
        2.712873697280884,
        16.54550552368164
      ],
      "min": [
        -2.5487122535705566,
        -15.545507431030273
      ],
      "type": "VEC2"
    },
    {
      "bufferView": 1,
      "byteOffset": 97952,
      "componentType": 5126,
      "count": 264,
      "max": [
        2.712873697280884,
        16.54550552368164
      ],
      "min": [
        -2.5487122535705566,
        -15.545507431030273
      ],
      "type": "VEC2"
    },
    {
      "bufferView": 0,
      "byteOffset": 158712,
      "componentType": 5125,
      "count": 1182,
      "type": "SCALAR"
    },
    {
      "bufferView": 2,
      "byteOffset": 293856,
      "componentType": 5126,
      "count": 432,
      "max": [
        0.22655820846557617,
        0.040332451462745667,
        -0.38484710454940796
      ],
      "min": [
        0.0580366812646389,
        -0.044245123863220215,
        -0.5856376886367798
      ],
      "type": "VEC3"
    },
    {
      "bufferView": 2,
      "byteOffset": 299040,
      "componentType": 5126,
      "count": 432,
      "max": [
        0.9924932718276978,
        1.0,
        0.9925674796104431
      ],
      "min": [
        -0.9924431443214417,
        -0.9996986985206604,
        -0.9925553202629089
      ],
      "type": "VEC3"
    },
    {
      "bufferView": 1,
      "byteOffset": 100064,
      "componentType": 5126,
      "count": 432,
      "max": [
        0.9463266134262085,
        0.9823415279388428
      ],
      "min": [
        0.09065230190753937,
        0.017658472061157227
      ],
      "type": "VEC2"
    },
    {
      "bufferView": 0,
      "byteOffset": 163440,
      "componentType": 5125,
      "count": 1800,
      "type": "SCALAR"
    },
    {
      "bufferView": 2,
      "byteOffset": 304224,
      "componentType": 5126,
      "count": 1922,
      "max": [
        0.2758120596408844,
        0.04023323208093643,
        0.6145946383476257
      ],
      "min": [
        -0.2758120596408844,
        -0.04617510735988617,
        -0.6011242866516113
      ],
      "type": "VEC3"
    },
    {
      "bufferView": 2,
      "byteOffset": 327288,
      "componentType": 5126,
      "count": 1922,
      "max": [
        0.9997168183326721,
        0.9994081258773804,
        0.9969195127487183
      ],
      "min": [
        -0.9997168183326721,
        -1.0,
        -0.9969195127487183
      ],
      "type": "VEC3"
    },
    {
      "bufferView": 1,
      "byteOffset": 103520,
      "componentType": 5126,
      "count": 1922,
      "max": [
        0.9953583478927612,
        0.9953583478927612
      ],
      "min": [
        0.004641663748770952,
        0.0046416521072387695
      ],
      "type": "VEC2"
    },
    {
      "bufferView": 0,
      "byteOffset": 170640,
      "componentType": 5125,
      "count": 3222,
      "type": "SCALAR"
    },
    {
      "bufferView": 2,
      "byteOffset": 350352,
      "componentType": 5126,
      "count": 5820,
      "max": [
        0.30929383635520935,
        0.007815791293978691,
        -0.15528708696365356
      ],
      "min": [
        -0.30853271484375,
        -0.012332666665315628,
        -0.4556361436843872
      ],
      "type": "VEC3"
    },
    {
      "bufferView": 2,
      "byteOffset": 420192,
      "componentType": 5126,
      "count": 5820,
      "max": [
        1.0,
        0.999990701675415,
        0.9996157288551331
      ],
      "min": [
        -1.0,
        -0.999990701675415,
        -0.9996157288551331
      ],
      "type": "VEC3"
    },
    {
      "bufferView": 1,
      "byteOffset": 118896,
      "componentType": 5126,
      "count": 5820,
      "max": [
        0.9760531783103943,
        0.994158923625946
      ],
      "min": [
        0.005841068923473358,
        0.02394688129425049
      ],
      "type": "VEC2"
    },
    {
      "bufferView": 0,
      "byteOffset": 183528,
      "componentType": 5125,
      "count": 8916,
      "type": "SCALAR"
    },
    {
      "bufferView": 2,
      "byteOffset": 490032,
      "componentType": 5126,
      "count": 28,
      "max": [
        0.2214188575744629,
        -0.04424510523676872,
        -0.4508727788925171
      ],
      "min": [
        0.1845777928829193,
        -0.04424511268734932,
        -0.48771387338638306
      ],
      "type": "VEC3"
    },
    {
      "bufferView": 2,
      "byteOffset": 490368,
      "componentType": 5126,
      "count": 28,
      "max": [
        0.025499358773231506,
        -0.9996748566627502,
        0.025499358773231506
      ],
      "min": [
        -0.025499358773231506,
        -0.9996772408485413,
        -0.025499358773231506
      ],
      "type": "VEC3"
    },
    {
      "bufferView": 1,
      "byteOffset": 165456,
      "componentType": 5126,
      "count": 28,
      "max": [
        0.5015497803688049,
        1.495349407196045
      ],
      "min": [
        -0.4984497129917145,
        0.49534934759140015
      ],
      "type": "VEC2"
    },
    {
      "bufferView": 0,
      "byteOffset": 219192,
      "componentType": 5125,
      "count": 78,
      "type": "SCALAR"
    }
  ],
  "asset": {
    "extras": {
      "author": "iSteven (https://sketchfab.com/OneSteven)",
      "license": "CC-BY-NC-4.0 (http://creativecommons.org/licenses/by-nc/4.0/)",
      "source": "https://sketchfab.com/3d-models/iphone-x-232ba4ab675147d88b7ed1d58d6e11cd",
      "title": "iPhone X"
    },
    "generator": "Sketchfab-15.18.0",
    "version": "2.0"
  },
  "bufferViews": [
    {
      "buffer": 0,
      "byteLength": 219504,
      "name": "floatBufferViews",
      "target": 34963
    },
    {
      "buffer": 0,
      "byteLength": 165680,
      "byteOffset": 219504,
      "byteStride": 8,
      "name": "floatBufferViews",
      "target": 34962
    },
    {
      "buffer": 0,
      "byteLength": 490704,
      "byteOffset": 385184,
      "byteStride": 12,
      "name": "floatBufferViews",
      "target": 34962
    },
    {
      "buffer": 0,
      "byteLength": 4224,
      "byteOffset": 875888,
      "byteStride": 16,
      "name": "floatBufferViews",
      "target": 34962
    }
  ],
  "buffers": [
    {
      "byteLength": 880112,
      "uri": "scene.bin"
    }
  ],
  "images": [
    {
      "uri": "textures/screen_emissive.png"
    },
    {
      "uri": "textures/gril_baseColor.jpeg"
    },
    {
      "uri": "textures/material_baseColor.jpeg"
    }
  ],
  "materials": [
    {
      "doubleSided": true,
      "name": "frame",
      "pbrMetallicRoughness": {
        "baseColorFactor": [
          0.05,
          0.05,
          0.05,
          1.0
        ],
        "roughnessFactor": 0.4
      }
    },
    {
      "doubleSided": true,
      "name": "mlack",
      "pbrMetallicRoughness": {
        "baseColorFactor": [
          0.0,
          0.0,
          0.0,
          1.0
        ],
        "metallicFactor": 0.0
      }
    },
    {
      "doubleSided": true,
      "emissiveFactor": [
        1.0,
        1.0,
        1.0
      ],
      "emissiveTexture": {
        "index": 0
      },
      "name": "screen",
      "pbrMetallicRoughness": {
        "baseColorFactor": [
          0.0,
          0.0,
          0.0,
          1.0
        ],
        "metallicFactor": 0.0
      }
    },
    {
      "doubleSided": true,
      "name": "chrome",
      "pbrMetallicRoughness": {
        "baseColorFactor": [
          0.8,
          0.8,
          0.8,
          1.0
        ],
        "roughnessFactor": 0.3
      }
    },
    {
      "doubleSided": true,
      "name": "glack",
      "pbrMetallicRoughness": {
        "baseColorFactor": [
          0.01,
          0.01,
          0.01,
          1.0
        ],
        "metallicFactor": 0.0,
        "roughnessFactor": 0.0
      }
    },
    {
      "doubleSided": true,
      "name": "gril",
      "normalTexture": {
        "index": 1
      },
      "pbrMetallicRoughness": {
        "baseColorTexture": {
          "index": 1
        },
        "roughnessFactor": 0.5
      }
    },
    {
      "doubleSided": true,
      "name": "material",
      "pbrMetallicRoughness": {
        "baseColorTexture": {
          "index": 2
        },
        "metallicFactor": 0.0,
        "roughnessFactor": 0.0
      }
    },
    {
      "alphaMode": "BLEND",
      "doubleSided": true,
      "name": "glass",
      "pbrMetallicRoughness": {
        "baseColorFactor": [
          0.0,
          0.0,
          0.0,
          0.6
        ],
        "metallicFactor": 0.0,
        "roughnessFactor": 0.0
      }
    },
    {
      "doubleSided": true,
      "name": "buton",
      "pbrMetallicRoughness": {
        "baseColorFactor": [
          0.01,
          0.01,
          0.01,
          1.0
        ],
        "metallicFactor": 0.0,
        "roughnessFactor": 0.0136364
      }
    },
    {
      "doubleSided": true,
      "name": "flash",
      "pbrMetallicRoughness": {
        "baseColorFactor": [
          0.8,
          0.748849,
          0.364733,
          1.0
        ],
        "metallicFactor": 0.0
      }
    }
  ],
  "meshes": [
    {
      "name": "Object_0",
      "primitives": [
        {
          "attributes": {
            "NORMAL": 1,
            "POSITION": 0,
            "TEXCOORD_0": 2
          },
          "indices": 3,
          "material": 0,
          "mode": 4
        }
      ]
    },
    {
      "name": "Object_1",
      "primitives": [
        {
          "attributes": {
            "NORMAL": 5,
            "POSITION": 4,
            "TEXCOORD_0": 6
          },
          "indices": 7,
          "material": 1,
          "mode": 4
        }
      ]
    },
    {
      "name": "Object_2",
      "primitives": [
        {
          "attributes": {
            "NORMAL": 9,
            "POSITION": 8,
            "TEXCOORD_0": 10
          },
          "indices": 11,
          "material": 2,
          "mode": 4
        }
      ]
    },
    {
      "name": "Object_3",
      "primitives": [
        {
          "attributes": {
            "NORMAL": 13,
            "POSITION": 12,
            "TEXCOORD_0": 14
          },
          "indices": 15,
          "material": 3,
          "mode": 4
        }
      ]
    },
    {
      "name": "Object_4",
      "primitives": [
        {
          "attributes": {
            "NORMAL": 17,
            "POSITION": 16,
            "TEXCOORD_0": 18
          },
          "indices": 19,
          "material": 4,
          "mode": 4
        }
      ]
    },
    {
      "name": "Object_5",
      "primitives": [
        {
          "attributes": {
            "NORMAL": 21,
            "POSITION": 20,
            "TANGENT": 22,
            "TEXCOORD_0": 23,
            "TEXCOORD_1": 24
          },
          "indices": 25,
          "material": 5,
          "mode": 4
        }
      ]
    },
    {
      "name": "Object_6",
      "primitives": [
        {
          "attributes": {
            "NORMAL": 27,
            "POSITION": 26,
            "TEXCOORD_0": 28
          },
          "indices": 29,
          "material": 6,
          "mode": 4
        }
      ]
    },
    {
      "name": "Object_7",
      "primitives": [
        {
          "attributes": {
            "NORMAL": 31,
            "POSITION": 30,
            "TEXCOORD_0": 32
          },
          "indices": 33,
          "material": 7,
          "mode": 4
        }
      ]
    },
    {
      "name": "Object_8",
      "primitives": [
        {
          "attributes": {
            "NORMAL": 35,
            "POSITION": 34,
            "TEXCOORD_0": 36
          },
          "indices": 37,
          "material": 8,
          "mode": 4
        }
      ]
    },
    {
      "name": "Object_9",
      "primitives": [
        {
          "attributes": {
            "NORMAL": 39,
            "POSITION": 38,
            "TEXCOORD_0": 40
          },
          "indices": 41,
          "material": 9,
          "mode": 4
        }
      ]
    }
  ],
  "nodes": [
    {
      "children": [
        1
      ],
      "matrix": [
        0.8235688209533691,
        0.45472380518913263,
        0.33905845880508434,
        0.0,
        0.5621905326843262,
        -0.5749884843826293,
        -0.5944156646728517,
        0.0,
        -0.07534024864435196,
        0.6801577210426332,
        -0.7291840314865111,
        0.0,
        0.0,
        0.0,
        0.0,
        1.0
      ],
      "name": "Sketchfab_model"
    },
    {
      "children": [
        2
      ],
      "name": "root"
    },
    {
      "children": [
        3
      ],
      "matrix": [
        1.0,
        0.0,
        0.0,
        0.0,
        0.0,
        2.220446049250313e-16,
        1.0,
        0.0,
        0.0,
        -1.0,
        2.220446049250313e-16,
        0.0,
        0.0,
        0.0,
        0.0,
        1.0
      ],
      "name": "GLTF_SceneRootNode"
    },
    {
      "children": [
        4,
        5,
        6,
        7,
        8,
        9,
        10,
        11,
        12,
        13
      ],
      "matrix": [
        1.0,
        0.0,
        0.0,
        0.0,
        0.0,
        -3.371747936409264e-07,
        0.999999999999943,
        0.0,
        0.0,
        -0.999999999999943,
        -3.371747936409264e-07,
        0.0,
        0.0,
        0.0,
        0.0,
        1.0
      ],
      "name": "mesh_0"
    },
    {
      "mesh": 0,
      "name": "Object_4"
    },
    {
      "mesh": 1,
      "name": "Object_5"
    },
    {
      "mesh": 2,
      "name": "Object_6"
    },
    {
      "mesh": 3,
      "name": "Object_7"
    },
    {
      "mesh": 4,
      "name": "Object_8"
    },
    {
      "mesh": 5,
      "name": "Object_9"
    },
    {
      "mesh": 6,
      "name": "Object_10"
    },
    {
      "mesh": 7,
      "name": "Object_11"
    },
    {
      "mesh": 8,
      "name": "Object_12"
    },
    {
      "mesh": 9,
      "name": "Object_13"
    }
  ],
  "samplers": [
    {
      "magFilter": 9729,
      "minFilter": 9987,
      "wrapS": 10497,
      "wrapT": 10497
    }
  ],
  "scene": 0,
  "scenes": [
    {
      "name": "Sketchfab_Scene",
      "nodes": [
        0
      ]
    }
  ],
  "textures": [
    {
      "sampler": 0,
      "source": 0
    },
    {
      "sampler": 0,
      "source": 1
    },
    {
      "sampler": 0,
      "source": 2
    }
  ]
}
